<svg width="118" height="113" viewBox="0 0 118 113" fill="none" xmlns="http://www.w3.org/2000/svg">
<path opacity="0.7" d="M53.339 20.6685C53.339 20.6685 37.6051 23.8109 28.6789 37.5189C19.7528 51.227 21.2197 67.8733 22.0164 81.4161C22.8132 94.959 32.5699 103.808 45.4355 103.207C58.3011 102.607 60.6444 91.7565 74.3099 83.7654C87.9753 75.7742 92.7766 75.4647 100.062 62.2295C107.347 48.9943 99.4391 31.5675 82.963 24.523C66.4869 17.4785 53.339 20.6685 53.339 20.6685Z" fill="#B8D2F0"/>
<path d="M45.1194 91.2925C45.1194 92.1704 44.4156 92.8741 43.5573 92.8741C42.6989 92.8741 41.9951 92.1704 41.9951 91.2925C41.9951 90.4146 42.6989 89.7109 43.5573 89.7109C44.4156 89.7109 45.1194 90.4146 45.1194 91.2925Z" stroke="#212121"/>
<path d="M97.5569 14.5719C97.5569 17.4206 95.2703 19.7219 92.4596 19.7219C89.6488 19.7219 87.3623 17.4206 87.3623 14.5719C87.3623 11.7232 89.6488 9.42188 92.4596 9.42188C95.2703 9.42188 97.5569 11.7232 97.5569 14.5719Z" stroke="#212121"/>
<line x1="83.8271" y1="95.1563" x2="83.8271" y2="101.698" stroke="#212121"/>
<line x1="86.8623" y1="98.6289" x2="80.3812" y2="98.6289" stroke="#212121"/>
<line x1="26.2471" y1="20.2227" x2="26.2471" y2="29.7384" stroke="#212121"/>
<line x1="30.8887" y1="25.0469" x2="21.4617" y2="25.0469" stroke="#212121"/>
<path d="M13.9147 84.25L61.5266 1.00707L109.139 84.25H13.9147Z" fill="#FFF9C4" stroke="#212121"/>
<line x1="63.3486" y1="17.2461" x2="63.3486" y2="54.7145" stroke="#212121" stroke-width="6"/>
<line x1="63.3486" y1="63.043" x2="63.3486" y2="74.9377" stroke="#212121" stroke-width="6"/>
</svg>
