<svg xmlns="http://www.w3.org/2000/svg" viewBox="0 0 320 193"><path d="M163.13,185.25a91.5,91.5,0,1,0-91.5-91.5A91.5,91.5,0,0,0,163.13,185.25Z" fill="#ecf4ff"/><polygon points="167.22 67.9 230.06 61.99 164.76 95.15 164.65 95.2 164.58 95.3 143.63 124.64 136.69 73.16 167.22 67.9" fill="#ecf4ff"/><polygon points="167.22 67.9 167.27 68.4 227.5 62.74 164.54 94.7 164.54 94.7 164.43 94.76 164.32 94.81 164.18 95.01 164.18 95.01 143.96 123.32 137.25 73.57 167.31 68.39 167.22 67.9 167.27 68.4 167.22 67.9 167.14 67.41 136.13 72.75 143.31 125.95 164.99 95.59 164.99 95.59 165.06 95.5 164.65 95.2 164.88 95.65 164.99 95.59 164.99 95.59 230.29 62.44 230.02 61.5 167.16 67.4 167.14 67.41 167.22 67.9" fill="#086fff"/><polygon points="223.02 64.49 143.94 124.84 148.1 89.46 223.02 64.49" fill="#ecf4ff"/><polygon points="223.02 64.49 222.72 64.09 144.57 123.73 148.56 89.84 223.18 64.97 223.02 64.49 222.72 64.09 223.02 64.49 222.86 64.02 147.64 89.09 143.31 125.95 223.32 64.89 222.86 64.02 223.02 64.49" fill="#086fff"/><path d="M159.63,80.27l41.68,22.91a2.15,2.15,0,0,0,2.81-.68L237.7,54.25Z" fill="#ecf4ff"/><path d="M148.88,89.2,224.44,64l-32.72,47h0a1.65,1.65,0,0,1-2.16.51h0Z" fill="#fff"/><path d="M148.88,89.2l.16.47L223.17,65l-31.86,45.78.41.29-.39-.32h0v0a1.15,1.15,0,0,1-.95.5,1.2,1.2,0,0,1-.56-.15h0l-.22.45.24-.44L149.13,88.77l-.24.44.16.47-.16-.47-.24.43L189.32,112h0l.23-.45-.24.44a2.14,2.14,0,0,0,2.81-.67l-.41-.28.39.31h0L225.7,63.07l-78.06,26,1,.55Z" fill="#086fff"/><path d="M117.18,63.54H219.79L136.88,77.72l-20.48-11h0a1.68,1.68,0,0,1-.68-2.27A1.66,1.66,0,0,1,117.18,63.54Z" fill="#fff"/><path d="M117.18,63.54V64h96.73L137,77.2l-20.44-11h-.13v.5l.24-.44a1.1,1.1,0,0,1-.62-1,1.24,1.24,0,0,1,.31-.83,1.12,1.12,0,0,1,.86-.37V63a2.15,2.15,0,0,0-1.6.69,2.26,2.26,0,0,0-.57,1.5,2.13,2.13,0,0,0,1.14,1.9l.12.06h0L136.8,78.25,219.88,64l-.09-1H117.18Z" fill="#086fff"/><path d="M171.64,118.51l-67.15,42.93a5.5,5.5,0,1,0,5.93,9.27h0l67.14-42.93a5.5,5.5,0,0,0-5.81-9.34l-.11.07" fill="#fff"/><path d="M27.43,189.43a5.5,5.5,0,1,1-6-9.24l103.91-68.06a5.5,5.5,0,0,1,6,9.25Z" fill="#fff"/><path d="M119.71,82.61l-85.93,55.3a5.5,5.5,0,1,0,5.88,9.29l.06,0,85.92-55.3a5.5,5.5,0,1,0-5.93-9.26h0" fill="#fff"/><path d="M135.84,126.21,37.4,189.71a1,1,0,1,0,1.09,1.68l98.43-63.5a1,1,0,1,0-1.07-1.69h0" fill="#efae00"/><path d="M96.83,117.83,4.25,177.46a.5.5,0,0,0-.16.69.49.49,0,0,0,.68.16h0l92.58-59.63a.5.5,0,0,0,.16-.69.49.49,0,0,0-.68-.16h0" fill="#ecf4ff"/><path d="M160.67,133.29l4.2-2.7a1.5,1.5,0,1,0-1.59-2.55l0,0-4.2,2.7a1.5,1.5,0,1,0,1.63,2.52Zm-12.61,8.12,4.2-2.7a1.5,1.5,0,1,0-1.59-2.55l0,0-4.2,2.71a1.5,1.5,0,1,0,1.63,2.52Zm-12.62,8.12,4.2-2.7a1.5,1.5,0,0,0-1.58-2.55l0,0-4.2,2.71a1.5,1.5,0,1,0,1.62,2.52Zm-12.61,8.12L127,155a1.5,1.5,0,1,0-1.59-2.55l0,0-4.2,2.71a1.5,1.5,0,0,0,1.62,2.52Zm-12.61,8.12,4.2-2.7a1.51,1.51,0,0,0-1.63-2.53l-4.2,2.71a1.5,1.5,0,1,0,1.63,2.52Z" fill="#b9d6ff"/><path d="M111.17,128.89l.34-.22a1,1,0,0,0-1.08-1.68l-.35.22a1,1,0,1,0,1.07,1.69ZM98.57,137l4.2-2.72a1,1,0,0,0-1-1.71l-.06,0-4.19,2.72A1,1,0,0,0,98.57,137ZM86,145.17l4.2-2.71a1,1,0,0,0-1.09-1.68l-4.19,2.71A1,1,0,1,0,86,145.17Zm-12.6,8.14,4.2-2.71a1,1,0,0,0-1.07-1.69h0l-4.2,2.71a1,1,0,1,0,1.08,1.68Zm-12.6,8.14,4.2-2.71a1,1,0,1,0-1.09-1.68l-4.2,2.71a1,1,0,0,0,1.09,1.68Z" fill="#086fff"/><path d="M104.35,99.82l2.47-1.59a1,1,0,0,0-1.07-1.69h0l-2.47,1.6a1,1,0,0,0-.3,1.38A1,1,0,0,0,104.35,99.82Zm-12.62,8.11,4.21-2.7a1,1,0,0,0-1.08-1.69h0l-4.2,2.7a1,1,0,1,0,1.09,1.68ZM79.11,116l4.21-2.7a1,1,0,0,0,.33-1.37,1,1,0,0,0-1.37-.34l0,0L78,114.36A1,1,0,0,0,79.11,116ZM66.5,124.15l4.21-2.7a1,1,0,0,0,.3-1.38,1,1,0,0,0-1.39-.3l-4.2,2.7a1,1,0,0,0,1.08,1.68Zm-12.62,8.11,4.21-2.69a1,1,0,0,0,.3-1.39,1,1,0,0,0-1.39-.3l-4.21,2.7a1,1,0,0,0-.33,1.37,1,1,0,0,0,1.37.34l.05,0Zm-12.62,8.12,4.2-2.7A1,1,0,1,0,44.38,136l-4.2,2.7a1,1,0,1,0,1.07,1.69Z" fill="#f89b4b"/></svg>