<?xml version="1.0" standalone="no"?>
<!DOCTYPE svg PUBLIC "-//W3C//DTD SVG 20010904//EN"
 "http://www.w3.org/TR/2001/REC-SVG-20010904/DTD/svg10.dtd">
<svg version="1.0" xmlns="http://www.w3.org/2000/svg"
 width="348.000000pt" height="348.000000pt" viewBox="0 0 348.000000 348.000000"
 preserveAspectRatio="xMidYMid meet">
<metadata>
Created by potrace 1.14, written by Peter Selinger 2001-2017
</metadata>
<g transform="translate(0.000000,348.000000) scale(0.100000,-0.100000)"
fill="#000000" stroke="none">
<path d="M990 3387 c-3 -2 -30 -7 -60 -10 -108 -12 -229 -51 -360 -115 -78
-38 -110 -62 -181 -132 -70 -70 -94 -101 -128 -172 -67 -139 -87 -277 -61
-428 44 -261 138 -490 251 -613 78 -85 181 -140 261 -139 52 0 155 32 181 55
7 7 30 28 51 47 l38 35 -6 -70 c-4 -38 -11 -92 -16 -120 -5 -27 -12 -97 -15
-155 -3 -58 -10 -152 -14 -210 -10 -140 -11 -685 -1 -780 15 -140 21 -175 40
-241 41 -140 127 -209 260 -209 139 0 240 107 271 290 10 54 14 324 5 338 -2
4 -7 54 -11 112 -4 58 -8 107 -10 110 -2 4 -9 46 -15 96 -6 49 -18 110 -25
136 -7 25 -11 49 -8 51 2 3 33 -8 68 -24 129 -61 397 -94 552 -69 87 13 214
51 283 83 176 83 332 248 400 424 12 32 25 67 30 79 6 14 24 25 55 33 77 19
126 50 195 121 79 81 144 200 194 355 19 61 38 121 40 135 3 14 11 54 19 90
21 93 19 253 -2 337 -41 157 -166 322 -307 405 -166 97 -377 154 -569 153
-117 -1 -169 -43 -275 -225 -11 -19 -29 -48 -40 -65 -11 -16 -23 -37 -27 -45
-23 -45 -144 -239 -155 -247 -7 -5 -60 -15 -118 -22 -172 -21 -348 -87 -471
-177 -50 -36 -123 -112 -131 -135 -12 -33 -19 5 -13 66 7 66 8 66 62 106 74
55 205 117 280 132 34 7 64 15 68 18 3 4 -38 78 -91 165 -53 88 -120 197 -148
243 -88 147 -136 182 -261 189 -44 2 -82 2 -85 -1z m1095 -1002 c122 -13 229
-107 262 -230 3 -11 8 -53 10 -94 13 -185 -72 -338 -231 -416 -73 -36 -201
-58 -301 -51 -178 11 -257 44 -310 130 -27 45 -30 57 -31 144 -4 278 158 493
391 520 70 8 116 8 210 -3z"/>
</g>
</svg>
