<svg width="78" height="100" viewBox="0 0 78 100" fill="none" xmlns="http://www.w3.org/2000/svg">
<path d="M54.2336 87.0837C58.4947 86.2179 61.7016 82.4502 61.7016 77.9336C61.7016 72.7768 57.5211 68.5964 52.3643 68.5964H42.9064M54.2336 87.0837C53.6297 87.2064 53.0045 87.2709 52.3643 87.2709H50.9734V91.7416C52.5628 91.4436 56.0397 91.384 57.2318 93.5297C58.4238 95.6755 58.4569 97.404 58.3245 98H26.6505M54.2336 87.0837L60.212 88.7614C61.4836 89.3177 65.8125 95.5827 67.7992 98C67.7992 98 72.4705 98 75.2309 98C75.6555 92.1907 72.1006 92.1911 69.849 90.1381L70.3804 57.2542C70.3804 52.9579 70.3804 52.7764 70.3804 51.7182C70.3804 50.6599 68.3494 40.5873 67.7992 39.9141C66.1938 28.8458 76.0256 34.9127 75.71 27.8665C77.1046 26.2811 72.2551 19.2591 69.849 16.6412C70.7443 14.4328 69.1598 5.96022 68.2556 2L59.74 10.6856C59.6991 10.6851 59.6582 10.6848 59.6171 10.6848C58.1897 10.6848 56.7884 10.8788 55.4479 11.2428C55.1114 7.60789 54.0235 0.815982 52.3643 2.72756C50.7052 4.63914 46.8601 15.1673 45.1449 20.1924C44.5473 21.7113 44.2175 23.3565 44.2175 25.085C44.2175 29.3235 43.297 34.6584 44.9318 38.7904H44.8145C28.1356 38.7904 14.6147 51.6077 14.6147 67.4187C14.6147 75.5431 20.9165 85.4319 26.6505 90.6426V98M26.6505 98C17.9831 97.8027 6.01457 97.0196 2.77524 77.9336C0.184734 62.6704 4.32511 56.1342 17.4168 43.0425C23.4295 37.0298 28.8205 28.1496 20.7687 20.1924" stroke="#635BFF" stroke-width="4" stroke-linecap="round" stroke-linejoin="round"/>
</svg>
